<svg width="1166" height="399" viewBox="0 0 1166 399" fill="none" xmlns="http://www.w3.org/2000/svg">
<path d="M965.273 356.795C961.485 356.795 958.199 356.161 955.415 354.892C952.65 353.604 950.585 351.814 949.222 349.523C947.858 347.212 947.375 344.523 947.773 341.455H954.818C954.648 343.311 954.97 344.92 955.784 346.284C956.617 347.648 957.848 348.699 959.477 349.438C961.125 350.176 963.095 350.545 965.386 350.545C967.83 350.545 970.121 350.119 972.261 349.267C974.42 348.415 976.229 347.184 977.688 345.574C979.146 343.945 980.045 342.004 980.386 339.75C980.689 337.723 980.462 335.924 979.705 334.352C978.947 332.78 977.64 331.549 975.784 330.659C973.947 329.75 971.542 329.295 968.568 329.295H963.795L964.818 323.045H969.25C971.561 323.045 973.682 322.61 975.614 321.739C977.545 320.867 979.155 319.646 980.443 318.074C981.731 316.483 982.545 314.617 982.886 312.477C983.208 310.602 983.076 308.973 982.489 307.591C981.92 306.189 980.936 305.1 979.534 304.324C978.152 303.547 976.39 303.159 974.25 303.159C972.205 303.159 970.197 303.528 968.227 304.267C966.277 304.987 964.61 306.038 963.227 307.42C961.845 308.784 960.973 310.432 960.614 312.364H953.795C954.383 309.333 955.699 306.672 957.744 304.381C959.79 302.07 962.28 300.271 965.216 298.983C968.17 297.676 971.295 297.023 974.591 297.023C978.246 297.023 981.258 297.78 983.625 299.295C986.011 300.792 987.716 302.761 988.739 305.205C989.761 307.629 990.045 310.242 989.591 313.045C989.08 316.246 987.763 318.955 985.642 321.17C983.521 323.386 980.936 324.958 977.886 325.886V326.227C981.466 326.852 984.061 328.5 985.67 331.17C987.299 333.822 987.811 336.985 987.205 340.659C986.674 343.955 985.396 346.814 983.369 349.239C981.343 351.644 978.777 353.509 975.67 354.835C972.564 356.142 969.098 356.795 965.273 356.795Z" fill="#6E6E6E"/>
<path d="M1024.07 344.068L1024.98 338.273L1057.25 297.818H1061.45L1059.98 306.795H1057.14L1032.7 337.364V337.818H1067.14L1066.11 344.068H1024.07ZM1049.41 356L1051.68 342.25L1052.14 339.636L1059.07 297.818H1065.77L1056.11 356H1049.41Z" fill="#FA8F00"/>
<path d="M819.386 356L820.295 350.886L842.909 329.864C845.561 327.402 847.767 325.252 849.528 323.415C851.309 321.578 852.691 319.854 853.676 318.244C854.68 316.634 855.333 314.939 855.636 313.159C855.977 311.114 855.797 309.343 855.097 307.847C854.396 306.35 853.288 305.195 851.773 304.381C850.258 303.566 848.439 303.159 846.318 303.159C844.083 303.159 842.047 303.623 840.21 304.551C838.373 305.46 836.848 306.748 835.636 308.415C834.424 310.062 833.629 311.985 833.25 314.182H826.545C827.114 310.773 828.411 307.78 830.438 305.205C832.483 302.629 834.992 300.621 837.966 299.182C840.958 297.742 844.159 297.023 847.568 297.023C850.977 297.023 853.866 297.742 856.233 299.182C858.6 300.621 860.314 302.562 861.375 305.006C862.436 307.449 862.72 310.167 862.227 313.159C861.848 315.318 861.1 317.411 859.983 319.438C858.866 321.464 857.152 323.727 854.841 326.227C852.549 328.708 849.443 331.739 845.523 335.318L830.182 349.295L830.068 349.75H857.114L856.091 356H819.386Z" fill="#6E6E6E"/>
<path d="M709.5 297.818L699.841 356H692.795L701.205 305.205H700.864L685.068 314.636L686.318 307.477L702.455 297.818H709.5Z" fill="#6E6E6E"/>
<path d="M645.42 155.009L631.571 155.861C631.334 154.677 630.825 153.612 630.044 152.665C629.263 151.694 628.233 150.925 626.955 150.357C625.7 149.765 624.196 149.469 622.445 149.469C620.101 149.469 618.124 149.966 616.514 150.96C614.904 151.931 614.099 153.233 614.099 154.866C614.099 156.169 614.62 157.269 615.662 158.169C616.704 159.069 618.491 159.791 621.024 160.335L630.896 162.324C636.199 163.413 640.153 165.165 642.757 167.58C645.361 169.994 646.663 173.167 646.663 177.097C646.663 180.671 645.61 183.808 643.503 186.507C641.42 189.206 638.555 191.313 634.909 192.828C631.287 194.32 627.108 195.065 622.374 195.065C615.153 195.065 609.4 193.562 605.115 190.555C600.854 187.525 598.356 183.406 597.622 178.197L612.501 177.416C612.951 179.618 614.04 181.299 615.768 182.459C617.497 183.595 619.71 184.163 622.409 184.163C625.061 184.163 627.191 183.654 628.801 182.636C630.435 181.595 631.263 180.257 631.287 178.624C631.263 177.25 630.683 176.126 629.547 175.25C628.411 174.35 626.659 173.664 624.291 173.19L614.845 171.308C609.518 170.243 605.553 168.396 602.949 165.768C600.368 163.141 599.078 159.791 599.078 155.719C599.078 152.215 600.025 149.196 601.919 146.663C603.837 144.13 606.524 142.177 609.98 140.804C613.46 139.431 617.532 138.744 622.196 138.744C629.085 138.744 634.507 140.2 638.46 143.112C642.438 146.024 644.758 149.99 645.42 155.009ZM703.979 195.065C698.463 195.065 693.692 193.893 689.668 191.55C685.667 189.182 682.577 185.892 680.399 181.678C678.221 177.44 677.132 172.527 677.132 166.94C677.132 161.306 678.221 156.382 680.399 152.168C682.577 147.93 685.667 144.639 689.668 142.295C693.692 139.928 698.463 138.744 703.979 138.744C709.495 138.744 714.253 139.928 718.254 142.295C722.279 144.639 725.38 147.93 727.558 152.168C729.736 156.382 730.825 161.306 730.825 166.94C730.825 172.527 729.736 177.44 727.558 181.678C725.38 185.892 722.279 189.182 718.254 191.55C714.253 193.893 709.495 195.065 703.979 195.065ZM704.05 183.347C706.559 183.347 708.654 182.636 710.335 181.216C712.016 179.772 713.283 177.807 714.135 175.321C715.011 172.835 715.449 170.006 715.449 166.834C715.449 163.661 715.011 160.832 714.135 158.347C713.283 155.861 712.016 153.896 710.335 152.452C708.654 151.008 706.559 150.286 704.05 150.286C701.517 150.286 699.386 151.008 697.658 152.452C695.953 153.896 694.663 155.861 693.787 158.347C692.935 160.832 692.509 163.661 692.509 166.834C692.509 170.006 692.935 172.835 693.787 175.321C694.663 177.807 695.953 179.772 697.658 181.216C699.386 182.636 701.517 183.347 704.05 183.347ZM778.934 121.273V194H763.806V121.273H778.934ZM849.176 170.776V139.455H864.304V194H849.779V184.092H849.211C847.98 187.288 845.932 189.857 843.068 191.798C840.227 193.74 836.759 194.71 832.663 194.71C829.017 194.71 825.809 193.882 823.039 192.224C820.27 190.567 818.103 188.212 816.541 185.158C815.002 182.104 814.221 178.446 814.197 174.185V139.455H829.325V171.486C829.349 174.705 830.213 177.25 831.917 179.121C833.622 180.991 835.906 181.926 838.771 181.926C840.594 181.926 842.298 181.512 843.885 180.683C845.471 179.831 846.749 178.576 847.72 176.919C848.714 175.262 849.199 173.214 849.176 170.776ZM928.561 139.455V150.818H895.713V139.455H928.561ZM903.171 126.386H918.299V177.239C918.299 178.635 918.512 179.724 918.938 180.506C919.364 181.263 919.956 181.796 920.713 182.104C921.495 182.411 922.394 182.565 923.412 182.565C924.123 182.565 924.833 182.506 925.543 182.388C926.253 182.246 926.798 182.139 927.176 182.068L929.556 193.325C928.798 193.562 927.733 193.834 926.36 194.142C924.987 194.473 923.318 194.675 921.353 194.746C917.707 194.888 914.511 194.402 911.765 193.29C909.042 192.177 906.923 190.449 905.408 188.105C903.893 185.761 903.147 182.802 903.171 179.227V126.386ZM961.56 194V139.455H976.688V194H961.56ZM969.16 132.423C966.911 132.423 964.981 131.678 963.371 130.186C961.785 128.671 960.992 126.86 960.992 124.753C960.992 122.67 961.785 120.882 963.371 119.391C964.981 117.875 966.911 117.118 969.16 117.118C971.409 117.118 973.326 117.875 974.913 119.391C976.522 120.882 977.327 122.67 977.327 124.753C977.327 126.86 976.522 128.671 974.913 130.186C973.326 131.678 971.409 132.423 969.16 132.423ZM1036.6 195.065C1031.08 195.065 1026.31 193.893 1022.28 191.55C1018.28 189.182 1015.19 185.892 1013.02 181.678C1010.84 177.44 1009.75 172.527 1009.75 166.94C1009.75 161.306 1010.84 156.382 1013.02 152.168C1015.19 147.93 1018.28 144.639 1022.28 142.295C1026.31 139.928 1031.08 138.744 1036.6 138.744C1042.11 138.744 1046.87 139.928 1050.87 142.295C1054.9 144.639 1058 147.93 1060.18 152.168C1062.35 156.382 1063.44 161.306 1063.44 166.94C1063.44 172.527 1062.35 177.44 1060.18 181.678C1058 185.892 1054.9 189.182 1050.87 191.55C1046.87 193.893 1042.11 195.065 1036.6 195.065ZM1036.67 183.347C1039.18 183.347 1041.27 182.636 1042.95 181.216C1044.63 179.772 1045.9 177.807 1046.75 175.321C1047.63 172.835 1048.07 170.006 1048.07 166.834C1048.07 163.661 1047.63 160.832 1046.75 158.347C1045.9 155.861 1044.63 153.896 1042.95 152.452C1041.27 151.008 1039.18 150.286 1036.67 150.286C1034.13 150.286 1032 151.008 1030.27 152.452C1028.57 153.896 1027.28 155.861 1026.4 158.347C1025.55 160.832 1025.13 163.661 1025.13 166.834C1025.13 170.006 1025.55 172.835 1026.4 175.321C1027.28 177.807 1028.57 179.772 1030.27 181.216C1032 182.636 1034.13 183.347 1036.67 183.347ZM1111.55 162.466V194H1096.42V139.455H1110.84V149.078H1111.48C1112.69 145.906 1114.71 143.396 1117.55 141.55C1120.39 139.679 1123.84 138.744 1127.89 138.744C1131.67 138.744 1134.98 139.573 1137.79 141.23C1140.61 142.887 1142.8 145.255 1144.36 148.332C1145.93 151.386 1146.71 155.032 1146.71 159.27V194H1131.58V161.969C1131.6 158.631 1130.75 156.027 1129.02 154.156C1127.29 152.262 1124.92 151.315 1121.89 151.315C1119.85 151.315 1118.05 151.753 1116.49 152.629C1114.95 153.505 1113.74 154.784 1112.87 156.464C1112.01 158.122 1111.58 160.122 1111.55 162.466Z" fill="#006CA9"/>
<path d="M272.273 260.455L252.102 315H243.58L223.409 260.455H232.5L247.557 303.92H248.125L263.182 260.455H272.273ZM303.54 316.136C298.616 316.136 294.296 314.964 290.579 312.621C286.886 310.277 283.997 306.998 281.914 302.784C279.854 298.57 278.825 293.646 278.825 288.011C278.825 282.33 279.854 277.37 281.914 273.132C283.997 268.894 286.886 265.604 290.579 263.26C294.296 260.916 298.616 259.744 303.54 259.744C308.465 259.744 312.773 260.916 316.467 263.26C320.183 265.604 323.072 268.894 325.131 273.132C327.215 277.37 328.256 282.33 328.256 288.011C328.256 293.646 327.215 298.57 325.131 302.784C323.072 306.998 320.183 310.277 316.467 312.621C312.773 314.964 308.465 316.136 303.54 316.136ZM303.54 308.608C307.281 308.608 310.359 307.649 312.773 305.732C315.188 303.814 316.976 301.293 318.136 298.168C319.296 295.043 319.876 291.657 319.876 288.011C319.876 284.366 319.296 280.968 318.136 277.82C316.976 274.671 315.188 272.126 312.773 270.185C310.359 268.243 307.281 267.273 303.54 267.273C299.8 267.273 296.722 268.243 294.308 270.185C291.893 272.126 290.105 274.671 288.945 277.82C287.785 280.968 287.205 284.366 287.205 288.011C287.205 291.657 287.785 295.043 288.945 298.168C290.105 301.293 291.893 303.814 294.308 305.732C296.722 307.649 299.8 308.608 303.54 308.608ZM351.552 315L334.933 260.455H343.739L355.529 302.216H356.097L367.745 260.455H376.694L388.2 302.074H388.768L400.558 260.455H409.364L392.745 315H384.506L372.575 273.097H371.722L359.79 315H351.552ZM441.458 316.136C436.202 316.136 431.668 314.976 427.857 312.656C424.069 310.312 421.145 307.045 419.086 302.855C417.05 298.641 416.032 293.741 416.032 288.153C416.032 282.566 417.05 277.642 419.086 273.381C421.145 269.096 424.01 265.758 427.679 263.366C431.373 260.952 435.681 259.744 440.605 259.744C443.446 259.744 446.252 260.218 449.022 261.165C451.792 262.112 454.313 263.651 456.586 265.781C458.858 267.888 460.669 270.682 462.019 274.162C463.368 277.642 464.043 281.927 464.043 287.017V290.568H421.998V283.324H455.52C455.52 280.246 454.905 277.5 453.674 275.085C452.466 272.67 450.738 270.765 448.489 269.368C446.264 267.971 443.636 267.273 440.605 267.273C437.267 267.273 434.379 268.101 431.941 269.759C429.526 271.392 427.667 273.523 426.365 276.151C425.063 278.778 424.412 281.596 424.412 284.602V289.432C424.412 293.551 425.123 297.043 426.543 299.908C427.987 302.749 429.988 304.915 432.544 306.406C435.101 307.874 438.072 308.608 441.458 308.608C443.659 308.608 445.648 308.3 447.424 307.685C449.223 307.045 450.774 306.098 452.076 304.844C453.378 303.565 454.384 301.979 455.094 300.085L463.191 302.358C462.338 305.104 460.906 307.519 458.894 309.602C456.882 311.662 454.396 313.272 451.436 314.432C448.477 315.568 445.151 316.136 441.458 316.136ZM485.172 242.273V315H476.792V242.273H485.172ZM539.158 272.67L531.63 274.801C531.156 273.546 530.458 272.327 529.535 271.143C528.635 269.936 527.404 268.942 525.842 268.161C524.279 267.379 522.279 266.989 519.84 266.989C516.502 266.989 513.72 267.758 511.495 269.297C509.293 270.812 508.192 272.741 508.192 275.085C508.192 277.169 508.95 278.814 510.465 280.021C511.98 281.229 514.348 282.235 517.567 283.04L525.664 285.028C530.541 286.212 534.175 288.023 536.566 290.462C538.957 292.876 540.153 295.99 540.153 299.801C540.153 302.926 539.253 305.72 537.454 308.182C535.678 310.644 533.192 312.585 529.996 314.006C526.8 315.426 523.084 316.136 518.846 316.136C513.282 316.136 508.678 314.929 505.032 312.514C501.386 310.099 499.078 306.572 498.107 301.932L506.062 299.943C506.819 302.879 508.252 305.08 510.359 306.548C512.489 308.016 515.271 308.75 518.704 308.75C522.61 308.75 525.711 307.921 528.008 306.264C530.328 304.583 531.488 302.571 531.488 300.227C531.488 298.333 530.825 296.747 529.499 295.469C528.174 294.167 526.138 293.196 523.391 292.557L514.3 290.426C509.305 289.242 505.636 287.408 503.292 284.922C500.972 282.412 499.812 279.276 499.812 275.511C499.812 272.434 500.676 269.711 502.404 267.344C504.156 264.976 506.535 263.118 509.542 261.768C512.572 260.419 516.005 259.744 519.84 259.744C525.238 259.744 529.476 260.928 532.553 263.295C535.655 265.663 537.856 268.788 539.158 272.67Z" fill="#6E6E6E"/>
<path d="M29.8295 98.1364C24.7159 98.1364 20.3125 96.929 16.6193 94.5142C12.9261 92.0994 10.0852 88.7732 8.09659 84.5355C6.10795 80.2978 5.11364 75.4564 5.11364 70.0114C5.11364 64.4716 6.13163 59.5829 8.16761 55.3452C10.2273 51.0838 13.0919 47.7576 16.7614 45.3665C20.4545 42.9517 24.7633 41.7443 29.6875 41.7443C33.5227 41.7443 36.9792 42.4545 40.0568 43.875C43.1345 45.2955 45.6558 47.2841 47.6207 49.8409C49.5857 52.3977 50.8049 55.3807 51.2784 58.7898H42.8977C42.2585 56.304 40.8381 54.1023 38.6364 52.1847C36.4583 50.2434 33.5227 49.2727 29.8295 49.2727C26.5625 49.2727 23.6979 50.125 21.2358 51.8295C18.7973 53.5104 16.8916 55.8897 15.5185 58.9673C14.169 62.0213 13.4943 65.608 13.4943 69.7273C13.4943 73.9413 14.1572 77.6108 15.483 80.7358C16.8324 83.8608 18.7263 86.2874 21.1648 88.0156C23.6269 89.7438 26.5152 90.608 29.8295 90.608C32.0076 90.608 33.9844 90.2292 35.7599 89.4716C37.5355 88.714 39.0388 87.625 40.2699 86.2045C41.5009 84.7841 42.3769 83.0795 42.8977 81.0909H51.2784C50.8049 84.3106 49.633 87.2107 47.7628 89.7912C45.9162 92.348 43.4659 94.384 40.4119 95.8991C37.3816 97.3906 33.8542 98.1364 29.8295 98.1364ZM85.6889 98.1364C80.7647 98.1364 76.4441 96.9645 72.7273 94.6207C69.0341 92.277 66.1458 88.9981 64.0625 84.7841C62.0028 80.5701 60.973 75.6458 60.973 70.0114C60.973 64.3295 62.0028 59.3698 64.0625 55.1321C66.1458 50.8944 69.0341 47.6037 72.7273 45.2599C76.4441 42.9162 80.7647 41.7443 85.6889 41.7443C90.6132 41.7443 94.9219 42.9162 98.6151 45.2599C102.332 47.6037 105.22 50.8944 107.28 55.1321C109.363 59.3698 110.405 64.3295 110.405 70.0114C110.405 75.6458 109.363 80.5701 107.28 84.7841C105.22 88.9981 102.332 92.277 98.6151 94.6207C94.9219 96.9645 90.6132 98.1364 85.6889 98.1364ZM85.6889 90.608C89.4295 90.608 92.5071 89.6491 94.9219 87.7315C97.3366 85.8139 99.1241 83.2926 100.284 80.1676C101.444 77.0426 102.024 73.6572 102.024 70.0114C102.024 66.3655 101.444 62.9683 100.284 59.8196C99.1241 56.6709 97.3366 54.1259 94.9219 52.1847C92.5071 50.2434 89.4295 49.2727 85.6889 49.2727C81.9484 49.2727 78.8707 50.2434 76.456 52.1847C74.0412 54.1259 72.2538 56.6709 71.0938 59.8196C69.9337 62.9683 69.3537 66.3655 69.3537 70.0114C69.3537 73.6572 69.9337 77.0426 71.0938 80.1676C72.2538 83.2926 74.0412 85.8139 76.456 87.7315C78.8707 89.6491 81.9484 90.608 85.6889 90.608ZM131.578 64.1875V97H123.198V42.4545H131.294V50.9773H132.005C133.283 48.2074 135.224 45.982 137.828 44.3011C140.433 42.5966 143.794 41.7443 147.914 41.7443C151.607 41.7443 154.838 42.5019 157.608 44.017C160.378 45.5085 162.533 47.7812 164.071 50.8352C165.61 53.8655 166.38 57.7008 166.38 62.3409V97H157.999V62.9091C157.999 58.6241 156.886 55.286 154.661 52.8949C152.435 50.4801 149.382 49.2727 145.499 49.2727C142.824 49.2727 140.433 49.8527 138.326 51.0128C136.242 52.1728 134.597 53.8655 133.39 56.0909C132.182 58.3163 131.578 61.0152 131.578 64.1875ZM220.33 54.6705L212.802 56.8011C212.328 55.5464 211.63 54.3272 210.707 53.1435C209.807 51.9361 208.576 50.9418 207.013 50.1605C205.451 49.3793 203.451 48.9886 201.012 48.9886C197.674 48.9886 194.892 49.758 192.667 51.2969C190.465 52.812 189.364 54.7415 189.364 57.0852C189.364 59.1686 190.122 60.8139 191.637 62.0213C193.152 63.2287 195.52 64.2348 198.739 65.0398L206.836 67.0284C211.713 68.2121 215.347 70.0232 217.738 72.4616C220.129 74.8764 221.325 77.9896 221.325 81.8011C221.325 84.9261 220.425 87.7197 218.626 90.1818C216.85 92.6439 214.364 94.5852 211.168 96.0057C207.972 97.4261 204.255 98.1364 200.018 98.1364C194.454 98.1364 189.85 96.929 186.204 94.5142C182.558 92.0994 180.25 88.572 179.279 83.9318L187.234 81.9432C187.991 84.8788 189.424 87.0805 191.531 88.5483C193.661 90.0161 196.443 90.75 199.876 90.75C203.782 90.75 206.883 89.9214 209.18 88.2642C211.5 86.5833 212.66 84.571 212.66 82.2273C212.66 80.3333 211.997 78.7472 210.671 77.4688C209.345 76.1667 207.309 75.196 204.563 74.5568L195.472 72.4261C190.477 71.2424 186.808 69.4077 184.464 66.9219C182.144 64.4124 180.984 61.2756 180.984 57.5114C180.984 54.4337 181.848 51.7112 183.576 49.3438C185.328 46.9763 187.707 45.1179 190.714 43.7685C193.744 42.419 197.177 41.7443 201.012 41.7443C206.41 41.7443 210.647 42.928 213.725 45.2955C216.826 47.6629 219.028 50.7879 220.33 54.6705ZM256.099 98.1364C251.175 98.1364 246.854 96.9645 243.137 94.6207C239.444 92.277 236.556 88.9981 234.473 84.7841C232.413 80.5701 231.383 75.6458 231.383 70.0114C231.383 64.3295 232.413 59.3698 234.473 55.1321C236.556 50.8944 239.444 47.6037 243.137 45.2599C246.854 42.9162 251.175 41.7443 256.099 41.7443C261.023 41.7443 265.332 42.9162 269.025 45.2599C272.742 47.6037 275.63 50.8944 277.69 55.1321C279.773 59.3698 280.815 64.3295 280.815 70.0114C280.815 75.6458 279.773 80.5701 277.69 84.7841C275.63 88.9981 272.742 92.277 269.025 94.6207C265.332 96.9645 261.023 98.1364 256.099 98.1364ZM256.099 90.608C259.84 90.608 262.917 89.6491 265.332 87.7315C267.747 85.8139 269.534 83.2926 270.694 80.1676C271.854 77.0426 272.434 73.6572 272.434 70.0114C272.434 66.3655 271.854 62.9683 270.694 59.8196C269.534 56.6709 267.747 54.1259 265.332 52.1847C262.917 50.2434 259.84 49.2727 256.099 49.2727C252.359 49.2727 249.281 50.2434 246.866 52.1847C244.451 54.1259 242.664 56.6709 241.504 59.8196C240.344 62.9683 239.764 66.3655 239.764 70.0114C239.764 73.6572 240.344 77.0426 241.504 80.1676C242.664 83.2926 244.451 85.8139 246.866 87.7315C249.281 89.6491 252.359 90.608 256.099 90.608ZM301.989 64.1875V97H293.608V42.4545H301.705V50.9773H302.415C303.693 48.2074 305.634 45.982 308.239 44.3011C310.843 42.5966 314.205 41.7443 318.324 41.7443C322.017 41.7443 325.249 42.5019 328.018 44.017C330.788 45.5085 332.943 47.7812 334.482 50.8352C336.02 53.8655 336.79 57.7008 336.79 62.3409V97H328.409V62.9091C328.409 58.6241 327.296 55.286 325.071 52.8949C322.846 50.4801 319.792 49.2727 315.909 49.2727C313.234 49.2727 310.843 49.8527 308.736 51.0128C306.652 52.1728 305.007 53.8655 303.8 56.0909C302.592 58.3163 301.989 61.0152 301.989 64.1875ZM368.155 98.2784C364.699 98.2784 361.562 97.6274 358.745 96.3253C355.927 94.9995 353.69 93.0938 352.033 90.608C350.376 88.0985 349.547 85.0682 349.547 81.517C349.547 78.392 350.163 75.8589 351.394 73.9176C352.625 71.9527 354.27 70.4138 356.33 69.3011C358.39 68.1884 360.662 67.3598 363.148 66.8153C365.658 66.2472 368.179 65.7973 370.712 65.4659C374.026 65.0398 376.713 64.7202 378.773 64.5071C380.856 64.2704 382.372 63.8797 383.319 63.3352C384.289 62.7907 384.775 61.8437 384.775 60.4943V60.2102C384.775 56.7064 383.816 53.9839 381.898 52.0426C380.004 50.1013 377.128 49.1307 373.269 49.1307C369.268 49.1307 366.131 50.0066 363.858 51.7585C361.586 53.5104 359.988 55.3807 359.064 57.3693L351.11 54.5284C352.53 51.214 354.424 48.6335 356.792 46.7869C359.183 44.9167 361.787 43.6146 364.604 42.8807C367.445 42.1231 370.239 41.7443 372.985 41.7443C374.737 41.7443 376.749 41.9574 379.022 42.3835C381.318 42.786 383.532 43.6264 385.662 44.9048C387.817 46.1832 389.604 48.1127 391.025 50.6932C392.445 53.2737 393.155 56.7301 393.155 61.0625V97H384.775V89.6136H384.348C383.78 90.7973 382.833 92.0639 381.507 93.4134C380.182 94.7628 378.418 95.911 376.216 96.858C374.015 97.8049 371.328 98.2784 368.155 98.2784ZM369.434 90.75C372.748 90.75 375.542 90.099 377.814 88.7969C380.111 87.4948 381.839 85.8139 382.999 83.7543C384.183 81.6946 384.775 79.5284 384.775 77.2557V69.5852C384.419 70.0114 383.638 70.402 382.431 70.7571C381.247 71.0885 379.874 71.3845 378.311 71.6449C376.773 71.8816 375.269 72.0947 373.801 72.2841C372.357 72.4498 371.185 72.5919 370.286 72.7102C368.108 72.9943 366.072 73.456 364.178 74.0952C362.308 74.7107 360.792 75.6458 359.632 76.9006C358.496 78.1316 357.928 79.8125 357.928 81.9432C357.928 84.8551 359.005 87.0568 361.159 88.5483C363.337 90.0161 366.096 90.75 369.434 90.75ZM416.832 64.1875V97H408.452V42.4545H416.548V50.9773H417.259C418.537 48.2074 420.478 45.982 423.082 44.3011C425.687 42.5966 429.048 41.7443 433.168 41.7443C436.861 41.7443 440.092 42.5019 442.862 44.017C445.632 45.5085 447.786 47.7812 449.325 50.8352C450.864 53.8655 451.634 57.7008 451.634 62.3409V97H443.253V62.9091C443.253 58.6241 442.14 55.286 439.915 52.8949C437.689 50.4801 434.635 49.2727 430.753 49.2727C428.078 49.2727 425.687 49.8527 423.58 51.0128C421.496 52.1728 419.851 53.8655 418.643 56.0909C417.436 58.3163 416.832 61.0152 416.832 64.1875ZM490.669 42.4545V49.5568H462.402V42.4545H490.669ZM470.641 29.3864H479.022V81.375C479.022 83.7424 479.365 85.518 480.051 86.7017C480.762 87.8617 481.661 88.643 482.75 89.0455C483.863 89.4242 485.035 89.6136 486.266 89.6136C487.189 89.6136 487.947 89.5663 488.539 89.4716C489.131 89.3532 489.604 89.2585 489.959 89.1875L491.664 96.7159C491.096 96.929 490.302 97.142 489.284 97.3551C488.266 97.5919 486.976 97.7102 485.414 97.7102C483.046 97.7102 480.726 97.2012 478.453 96.1832C476.204 95.1652 474.334 93.6146 472.843 91.5312C471.375 89.4479 470.641 86.8201 470.641 83.6477V29.3864ZM540.936 54.6705L533.407 56.8011C532.934 55.5464 532.235 54.3272 531.312 53.1435C530.413 51.9361 529.181 50.9418 527.619 50.1605C526.056 49.3793 524.056 48.9886 521.618 48.9886C518.279 48.9886 515.498 49.758 513.272 51.2969C511.071 52.812 509.97 54.7415 509.97 57.0852C509.97 59.1686 510.727 60.8139 512.243 62.0213C513.758 63.2287 516.125 64.2348 519.345 65.0398L527.441 67.0284C532.318 68.2121 535.952 70.0232 538.343 72.4616C540.734 74.8764 541.93 77.9896 541.93 81.8011C541.93 84.9261 541.03 87.7197 539.231 90.1818C537.456 92.6439 534.97 94.5852 531.774 96.0057C528.578 97.4261 524.861 98.1364 520.623 98.1364C515.06 98.1364 510.455 96.929 506.809 94.5142C503.163 92.0994 500.855 88.572 499.885 83.9318L507.839 81.9432C508.597 84.8788 510.029 87.0805 512.136 88.5483C514.267 90.0161 517.048 90.75 520.481 90.75C524.387 90.75 527.489 89.9214 529.785 88.2642C532.105 86.5833 533.265 84.571 533.265 82.2273C533.265 80.3333 532.602 78.7472 531.277 77.4688C529.951 76.1667 527.915 75.196 525.169 74.5568L516.078 72.4261C511.083 71.2424 507.413 69.4077 505.069 66.9219C502.749 64.4124 501.589 61.2756 501.589 57.5114C501.589 54.4337 502.453 51.7112 504.181 49.3438C505.933 46.9763 508.313 45.1179 511.319 43.7685C514.35 42.419 517.782 41.7443 521.618 41.7443C527.015 41.7443 531.253 42.928 534.331 45.2955C537.432 47.6629 539.634 50.7879 540.936 54.6705Z" fill="#6E6E6E"/>
<line x1="556" y1="58.5" x2="1117" y2="58.5" stroke="#6E6E6E" stroke-width="5"/>
<line x1="556" y1="276.5" x2="1045" y2="276.5" stroke="#6E6E6E" stroke-width="5"/>
<path d="M618.732 122.772C619.709 123.748 621.291 123.748 622.268 122.772L638.178 106.862C639.154 105.886 639.154 104.303 638.178 103.327C637.201 102.35 635.618 102.35 634.642 103.327L620.5 117.469L606.358 103.327C605.382 102.35 603.799 102.35 602.822 103.327C601.846 104.303 601.846 105.886 602.822 106.862L618.732 122.772ZM618 60.9961V121.004H623V60.9961H618Z" fill="#6E6E6E"/>
<path d="M705.768 216.233C704.791 215.256 703.209 215.256 702.232 216.233L686.322 232.143C685.346 233.119 685.346 234.702 686.322 235.678C687.299 236.654 688.882 236.654 689.858 235.678L704 221.536L718.142 235.678C719.118 236.654 720.701 236.654 721.678 235.678C722.654 234.702 722.654 233.119 721.678 232.143L705.768 216.233ZM706.5 278.009V218H701.5V278.009H706.5Z" fill="#6E6E6E"/>
<path d="M1046.77 216.233C1045.79 215.256 1044.21 215.256 1043.23 216.233L1027.32 232.143C1026.35 233.119 1026.35 234.702 1027.32 235.678C1028.3 236.654 1029.88 236.654 1030.86 235.678L1045 221.536L1059.14 235.678C1060.12 236.654 1061.7 236.654 1062.68 235.678C1063.65 234.702 1063.65 233.119 1062.68 232.143L1046.77 216.233ZM1047.5 278.009V218H1042.5V278.009H1047.5Z" fill="#6E6E6E"/>
<path d="M969.768 217.233C968.791 216.256 967.209 216.256 966.232 217.233L950.322 233.143C949.346 234.119 949.346 235.702 950.322 236.678C951.299 237.654 952.882 237.654 953.858 236.678L968 222.536L982.142 236.678C983.118 237.654 984.701 237.654 985.678 236.678C986.654 235.702 986.654 234.119 985.678 233.143L969.768 217.233ZM970.5 279.009V219H965.5V279.009H970.5Z" fill="#6E6E6E"/>
<path d="M846.768 216.233C845.791 215.256 844.209 215.256 843.232 216.233L827.322 232.143C826.346 233.119 826.346 234.702 827.322 235.678C828.299 236.654 829.882 236.654 830.858 235.678L845 221.536L859.142 235.678C860.118 236.654 861.701 236.654 862.678 235.678C863.654 234.702 863.654 233.119 862.678 232.143L846.768 216.233ZM847.5 278.009V218H842.5V278.009H847.5Z" fill="#6E6E6E"/>
<path d="M1115.23 122.768C1116.21 123.744 1117.79 123.744 1118.77 122.768L1134.68 106.858C1135.65 105.882 1135.65 104.299 1134.68 103.322C1133.7 102.346 1132.12 102.346 1131.14 103.322L1117 117.464L1102.86 103.322C1101.88 102.346 1100.3 102.346 1099.32 103.322C1098.35 104.299 1098.35 105.882 1099.32 106.858L1115.23 122.768ZM1114.5 57V121H1119.5V57H1114.5Z" fill="#6E6E6E"/>
<path d="M908.232 122.776C909.209 123.752 910.791 123.752 911.768 122.776L927.678 106.866C928.654 105.89 928.654 104.307 927.678 103.331C926.701 102.354 925.118 102.354 924.142 103.331L910 117.473L895.858 103.331C894.882 102.354 893.299 102.354 892.322 103.331C891.346 104.307 891.346 105.89 892.322 106.866L908.232 122.776ZM907.5 61V121.008H912.5V61H907.5Z" fill="#6E6E6E"/>
<path d="M771.232 122.776C772.209 123.752 773.791 123.752 774.768 122.776L790.678 106.866C791.654 105.89 791.654 104.307 790.678 103.331C789.701 102.354 788.118 102.354 787.142 103.331L773 117.473L758.858 103.331C757.882 102.354 756.299 102.354 755.322 103.331C754.346 104.307 754.346 105.89 755.322 106.866L771.232 122.776ZM770.5 61V121.008H775.5V61H770.5Z" fill="#6E6E6E"/>
</svg>
